<?xml version="1.0" standalone="no"?>
<!DOCTYPE svg PUBLIC "-//W3C//DTD SVG 20010904//EN"
 "http://www.w3.org/TR/2001/REC-SVG-20010904/DTD/svg10.dtd">
<svg version="1.0" xmlns="http://www.w3.org/2000/svg"
 width="100.000000pt" height="100.000000pt" viewBox="0 0 100.000000 100.000000"
 preserveAspectRatio="xMidYMid meet">
<metadata>
Created by potrace 1.14, written by Peter Selinger 2001-2017
</metadata>
<g transform="translate(0.000000,100.000000) scale(0.100000,-0.100000)"
fill="#000000" stroke="none">
<path d="M355 910 c-135 -63 -205 -177 -200 -327 3 -88 37 -162 102 -227 26
-25 51 -46 54 -46 4 0 3 15 -2 33 -5 17 -11 70 -14 116 -3 77 -1 90 25 140 15
31 41 69 56 85 44 44 116 74 164 69 38 -5 54 7 30 22 -5 3 -10 12 -9 18 0 9 2
9 5 0 3 -7 11 -10 19 -7 21 9 55 -14 48 -32 -4 -10 -8 -12 -12 -5 -5 8 -13 7
-26 -3 -18 -13 -18 -16 16 -57 55 -68 72 -120 75 -233 2 -56 -1 -107 -7 -118
-19 -35 -2 -31 41 8 50 47 94 118 86 140 -3 8 -2 13 3 9 21 -12 33 162 13 188
-5 7 -9 19 -9 27 1 27 -53 109 -95 145 -69 59 -122 79 -218 81 -75 2 -92 -1
-145 -26z m133 -20 c2 -14 -3 -27 -12 -32 -9 -5 -16 -16 -16 -23 0 -18 -30
-20 -31 -2 -3 34 4 63 19 75 22 17 36 10 40 -18z m-83 0 c-3 -5 -14 -10 -23
-10 -15 0 -15 2 -2 10 20 13 33 13 25 0z m-85 -24 c0 -3 -4 -8 -10 -11 -5 -3
-10 -1 -10 4 0 6 5 11 10 11 6 0 10 -2 10 -4z m71 -17 c8 -15 8 -19 0 -15 -6
4 -11 2 -11 -3 0 -6 -5 -11 -12 -11 -9 0 -9 3 0 12 9 9 7 14 -6 24 -16 13 -16
13 0 14 10 0 22 -10 29 -21z m271 -6 c80 -69 135 -124 135 -135 0 -7 3 -23 7
-35 9 -29 2 -29 -25 -2 -11 11 -27 18 -35 15 -8 -3 -20 3 -26 14 -7 11 -18 20
-25 20 -7 0 -13 5 -13 10 0 6 10 10 22 10 17 0 19 3 10 12 -17 17 -40 18 -46
2 -6 -16 -26 -19 -26 -3 0 5 6 7 13 3 6 -4 2 4 -10 17 -17 19 -20 28 -12 36 9
9 7 16 -6 30 -18 17 -18 17 -13 -4 5 -19 3 -21 -12 -13 -23 13 -15 50 11 50
11 0 34 -12 51 -27z m65 -20 c55 -58 49 -67 -8 -14 -24 23 -47 41 -51 41 -5 0
-8 5 -8 10 0 22 26 8 67 -37z m-425 -17 c-25 -22 -58 -58 -74 -80 -23 -31 -28
-35 -28 -18 0 11 4 23 9 26 4 3 11 18 14 34 10 50 40 77 85 77 l40 0 -46 -39z
m228 40 c0 -2 -7 -6 -15 -10 -8 -3 -15 -1 -15 4 0 6 7 10 15 10 8 0 15 -2 15
-4z m-153 -51 c11 -8 23 -24 26 -36 4 -16 3 -19 -6 -10 -14 14 -47 15 -47 0 0
-5 4 -8 9 -4 5 3 12 1 16 -5 3 -5 -1 -10 -10 -10 -23 0 -74 -59 -68 -79 3 -13
2 -12 -7 2 -9 13 -15 15 -31 7 -23 -13 -27 -55 -3 -46 8 3 12 2 9 -4 -3 -6 -2
-10 3 -10 6 0 12 -7 15 -15 5 -11 -1 -10 -26 4 -17 9 -34 28 -38 42 -3 13 -11
23 -18 21 -15 -3 -9 8 33 63 46 62 62 75 74 63 13 -13 32 -2 32 18 0 18 10 18
37 -1z m257 -90 c10 -8 23 -12 28 -9 13 8 48 -6 48 -20 0 -7 11 -30 25 -50
l25 -37 -20 -26 c-11 -14 -20 -36 -20 -49 0 -40 -18 -27 -25 19 -9 57 -41 126
-72 160 -28 29 -21 36 11 12z m136 -49 c0 -6 -4 -17 -9 -24 -6 -10 -12 -6 -25
14 -10 14 -13 23 -7 20 6 -4 11 -3 11 3 0 6 7 8 15 5 8 -4 15 -11 15 -18z"/>
<path d="M473 676 c-8 -34 -7 -43 3 -39 12 4 25 83 13 83 -3 0 -10 -20 -16
-44z"/>
<path d="M510 683 c0 -25 5 -43 14 -46 11 -4 12 2 4 36 -12 56 -18 59 -18 10z"/>
<path d="M403 618 c-57 -12 -54 -23 6 -26 38 -1 49 1 47 13 -3 21 -7 22 -53
13z"/>
<path d="M546 613 c-9 -23 -9 -24 44 -21 27 2 50 6 50 11 0 4 -3 7 -7 7 -5 0
-25 4 -45 9 -29 7 -38 5 -42 -6z"/>
<path d="M523 523 c2 -22 -2 -28 -18 -28 -14 0 -19 6 -17 18 5 28 -5 20 -28
-25 -12 -23 -16 -37 -8 -30 21 17 84 18 104 1 18 -13 18 -13 1 13 -9 15 -18
39 -19 53 -1 14 -6 25 -10 25 -4 0 -6 -12 -5 -27z"/>
<path d="M453 406 c-46 -17 -54 -30 -13 -21 45 9 66 10 115 1 46 -8 38 5 -14
23 -39 13 -45 13 -88 -3z"/>
<path d="M400 329 c0 -5 6 -8 13 -6 7 1 12 -10 12 -30 0 -17 3 -35 8 -39 4 -4
7 9 7 28 0 23 6 38 15 42 12 4 15 -3 15 -29 0 -19 4 -35 8 -35 10 0 15 70 5
71 -52 7 -83 6 -83 -2z"/>
<path d="M520 321 c0 -11 -6 -22 -12 -24 -10 -4 -10 -6 0 -6 6 -1 12 -8 12
-16 0 -8 3 -15 8 -15 4 0 6 18 4 40 -4 41 -12 55 -12 21z"/>
<path d="M550 301 c0 -42 20 -60 40 -36 9 11 7 12 -9 8 -12 -3 -21 -1 -21 5 0
6 8 13 18 15 16 4 16 5 0 6 -10 0 -18 8 -18 16 0 9 6 12 15 9 8 -4 15 -1 15 5
0 6 -9 11 -20 11 -17 0 -20 -7 -20 -39z"/>
<path d="M8 185 c-2 -32 1 -55 7 -56 6 0 20 -2 33 -3 12 -2 22 2 21 8 -1 6 -1
22 0 36 1 24 2 23 18 -9 15 -31 18 -32 30 -15 7 10 13 24 13 31 0 7 6 13 13
13 8 0 13 9 12 20 -2 35 -12 32 -30 -12 l-18 -43 -16 37 c-9 21 -19 38 -23 38
-4 0 -10 -20 -14 -45 -9 -65 -24 -66 -24 -1 0 72 -17 73 -22 1z"/>
<path d="M315 185 c-1 -30 4 -56 10 -59 7 -2 11 17 10 55 0 33 -4 59 -10 59
-5 0 -10 -25 -10 -55z"/>
<path d="M367 222 c-44 -48 9 -120 66 -90 18 9 24 48 7 48 -5 0 -10 -9 -10
-20 0 -26 -45 -28 -58 -2 -19 35 18 81 49 61 23 -15 35 -9 15 6 -26 20 -49 19
-69 -3z"/>
<path d="M463 181 c0 -42 3 -58 12 -55 7 3 10 16 7 32 l-5 27 21 -26 c12 -15
31 -29 43 -32 17 -5 24 2 38 34 10 21 21 36 24 32 4 -3 2 -12 -4 -20 -9 -10
-7 -13 6 -13 12 0 16 -6 12 -19 -3 -14 0 -17 13 -14 17 4 17 8 -4 54 -11 27
-23 49 -27 49 -3 0 -15 -20 -27 -45 -23 -48 -33 -53 -51 -31 -9 11 -9 19 0 34
16 26 -2 52 -36 52 -20 0 -22 -5 -22 -59z m47 24 c0 -8 -7 -15 -15 -15 -8 0
-15 7 -15 15 0 8 7 15 15 15 8 0 15 -7 15 -15z"/>
<path d="M644 228 c-3 -4 4 -8 15 -8 12 0 22 -7 22 -15 1 -8 2 -21 3 -27 1 -7
-1 -23 -5 -34 -6 -17 -4 -21 9 -17 14 3 16 14 14 52 -4 47 -3 48 22 44 24 -5
26 -9 22 -52 -2 -30 1 -48 8 -48 7 0 11 22 11 57 l0 56 -58 0 c-32 0 -60 -3
-63 -8z"/>
<path d="M797 222 c-24 -26 -21 -68 5 -86 27 -19 38 -19 60 -3 28 22 33 62 9
86 -26 26 -53 27 -74 3z m54 -2 c23 -13 25 -53 3 -74 -37 -38 -76 29 -42 72
13 15 14 15 39 2z"/>
<path d="M895 180 c0 -35 4 -59 10 -57 5 2 9 21 7 43 l-3 39 36 -37 c19 -21
37 -38 39 -38 2 0 6 25 8 55 2 38 -1 55 -9 55 -8 0 -11 -14 -8 -42 l5 -43 -41
43 c-22 23 -41 42 -42 42 -1 0 -2 -27 -2 -60z"/>
<path d="M189 205 c-3 -59 -4 -65 -14 -67 -5 -2 -11 7 -13 20 -2 12 -8 22 -13
22 -14 0 -11 -50 4 -51 6 0 20 -2 30 -4 13 -3 17 4 18 33 l1 37 13 -30 c7 -16
16 -29 20 -28 9 3 55 72 55 83 0 22 -17 8 -34 -27 l-18 -38 -16 38 c-19 43
-31 48 -33 12z"/>
<path d="M276 179 c-8 -24 -3 -48 10 -53 10 -4 12 3 7 27 -7 38 -11 44 -17 26z"/>
<path d="M344 85 c-7 -17 3 -35 18 -35 7 0 6 5 -2 15 -10 12 -8 16 11 24 l24
10 -23 0 c-12 1 -25 -6 -28 -14z"/>
<path d="M417 87 c-3 -8 -1 -20 4 -28 6 -10 9 -7 9 14 0 29 -5 35 -13 14z"/>
<path d="M448 77 c-3 -19 -2 -25 4 -19 6 6 8 18 6 28 -3 14 -5 12 -10 -9z"/>
<path d="M487 93 c-7 -12 6 -38 21 -41 16 -3 15 8 -2 31 -8 10 -16 15 -19 10z"/>
<path d="M550 75 c0 -14 4 -25 9 -25 4 0 6 11 3 25 -6 32 -12 32 -12 0z"/>
<path d="M582 75 c0 -16 2 -22 5 -12 2 9 2 23 0 30 -3 6 -5 -1 -5 -18z"/>
<path d="M615 91 c-3 -5 0 -13 6 -17 8 -4 7 -9 -2 -15 -8 -5 -9 -9 -4 -9 20 0
38 17 26 24 -6 4 -9 12 -6 17 4 5 2 9 -4 9 -5 0 -12 -4 -16 -9z"/>
<path d="M200 80 l-75 -6 100 -1 c64 -1 93 2 80 7 -11 5 -22 8 -25 7 -3 0 -39
-3 -80 -7z"/>
<path d="M667 78 c-7 -4 35 -7 93 -7 58 0 101 2 95 4 -20 8 -177 10 -188 3z"/>
<path d="M381 64 c0 -11 3 -14 6 -6 3 7 2 16 -1 19 -3 4 -6 -2 -5 -13z"/>
<path d="M878 73 c6 -2 18 -2 25 0 6 3 1 5 -13 5 -14 0 -19 -2 -12 -5z"/>
</g>
</svg>
